<svg xmlns="http://www.w3.org/2000/svg" version="1.1" xmlns:xlink="http://www.w3.org/1999/xlink" xmlns:svgjs="http://svgjs.dev/svgjs" width="1440" height="560" preserveAspectRatio="none" viewBox="0 0 1440 560"><g mask="url(&quot;#SvgjsMask1083&quot;)" fill="none"><rect width="1440" height="560" x="0" y="0" fill="url(&quot;#SvgjsLinearGradient1084&quot;)"></rect><path d="M1040.52 355.22 a111.51 111.51 0 1 0 223.02 0 a111.51 111.51 0 1 0 -223.02 0z" fill="rgba(56, 20, 171, 0.53)" class="triangle-float3"></path><path d="M262.1 346.18 a94.03 94.03 0 1 0 188.06 0 a94.03 94.03 0 1 0 -188.06 0z" fill="rgba(56, 20, 171, 0.53)" class="triangle-float2"></path><path d="M493.093005655648 397.4795745051281L636.5581742018006 345.26252350034457 584.3411231970172 201.79735495419197 440.8759546508645 254.01440595897546z" fill="rgba(56, 20, 171, 0.53)" class="triangle-float1"></path><path d="M303.7789134057166 242.43709107389333L379.6245695758678 373.8056210939949 510.9930995959693 297.9599649238437 435.14744342581815 166.59143490374217z" fill="rgba(56, 20, 171, 0.53)" class="triangle-float2"></path><path d="M509 122.47 a95.79 95.79 0 1 0 191.58 0 a95.79 95.79 0 1 0 -191.58 0z" fill="rgba(56, 20, 171, 0.53)" class="triangle-float1"></path><path d="M864.74 204.89 a138.03 138.03 0 1 0 276.06 0 a138.03 138.03 0 1 0 -276.06 0z" fill="rgba(56, 20, 171, 0.53)" class="triangle-float3"></path><path d="M1005.2830610162727 459.47079934228015L855.2559582367701 456.85206652227157 852.6372254167615 606.8791693017741 1002.664328196264 609.4979021217828z" fill="rgba(56, 20, 171, 0.53)" class="triangle-float3"></path><path d="M990.8308251920962 142.95889029423518L905.1746033435354 260.85456542246214 1023.0702784717623 346.5107872710229 1108.726500320323 228.61511214279597z" fill="rgba(56, 20, 171, 0.53)" class="triangle-float2"></path><path d="M219.1375253830379 125.54878729912036L269.2917953885517 212.41853116519798 356.16153925462936 162.26426115968417 306.0072692491155 75.39451729360655z" fill="rgba(56, 20, 171, 0.53)" class="triangle-float2"></path><path d="M1435.6826437927878 124.93258365248303L1447.9557426496228-15.349578198103103 1307.6735807990367-27.622677054938208 1295.4004819422016 112.65948479564793z" fill="rgba(56, 20, 171, 0.53)" class="triangle-float1"></path><path d="M126.88579775046404 143.3280246589367L181.28680258787958 265.51468206111315 303.4734599900561 211.11367722369764 249.07245515264052 88.92701982152116z" fill="rgba(56, 20, 171, 0.53)" class="triangle-float2"></path></g><defs><mask id="SvgjsMask1083"><rect width="1440" height="560" fill="#ffffff"></rect></mask><linearGradient x1="15.28%" y1="-39.29%" x2="84.72%" y2="139.29%" gradientUnits="userSpaceOnUse" id="SvgjsLinearGradient1084"><stop stop-color="#0e2a47" offset="0"></stop><stop stop-color="rgba(87, 0, 158, 1)" offset="1"></stop></linearGradient><style>
                @keyframes float1 {
                    0%{transform: translate(0, 0)}
                    50%{transform: translate(-10px, 0)}
                    100%{transform: translate(0, 0)}
                }

                .triangle-float1 {
                    animation: float1 5s infinite;
                }

                @keyframes float2 {
                    0%{transform: translate(0, 0)}
                    50%{transform: translate(-5px, -5px)}
                    100%{transform: translate(0, 0)}
                }

                .triangle-float2 {
                    animation: float2 4s infinite;
                }

                @keyframes float3 {
                    0%{transform: translate(0, 0)}
                    50%{transform: translate(0, -10px)}
                    100%{transform: translate(0, 0)}
                }

                .triangle-float3 {
                    animation: float3 6s infinite;
                }
            </style></defs></svg>