<svg version="1.2" xmlns="http://www.w3.org/2000/svg" viewBox="0 0 276 28" width="276" height="28"><style>.a{fill:#fff}</style><path class="a" d="m6.1 27.3q-1.1-0.1-1.6-1.1-0.3-0.6-0.6-1.2-0.5-1.2-0.5-2.4-1.2-0.1-2.3-0.1c-0.6 0-0.7-0.9-0.7-1.3 0-0.4 0.1-1.3 0.7-1.3q1.2 0 2.4 0c0.1-1 0.4-2 1-2.7q0.5-1 1.6-1.1 6.7-0.6 13.4-1.1 0.3 0 0.6-0.1-2.8 0.1-5.7 0.2-2.6 0-5.2 0.1-1 0-2 0-0.5 0-0.9 0-0.5 0-1 0-0.1 0.2-0.2 0.3-0.2 0.5-0.7 0.5c-0.6-0.1-1.2-0.2-1.8-0.4q-0.5-0.1-0.7-0.5-0.2-0.3-0.3-0.6-0.3-0.7-0.2-1.5-0.1-0.7 0.2-1.5 0.2-0.5 0.6-0.9c0.5-0.2 1-0.4 1.6-0.5q0.7-0.1 1.4-0.2 1 0 2-0.1 1.1-0.1 2.2-0.1 2.6-0.2 5.1-0.3 4.3-0.3 8.6-0.5c2.7-0.1 5.4-0.3 8.1-0.4 3.1-0.1 6.3-0.2 9.4-0.3q9.2-0.1 18.5-0.3c11.2-0.2 22.4-0.4 33.6-0.5q8.4-0.1 16.7-0.2c2.8 0 5.7 0 8.5-0.1 3-0.1 6-0.1 8.9-0.3 5.9-0.2 11.8-0.5 17.7-0.8q8.6-0.6 17.2-1.1c5.8-0.3 11.5-0.7 17.2-0.9 6.2-0.3 12.4-0.5 18.6-0.6 5.3-0.1 10.7-0.2 16.1-0.4q4.9-0.2 9.7-0.4c2.6-0.2 5.3-0.4 7.9-0.6q8.5-0.6 17-1.1c2.5-0.1 5.1-0.2 7.6-0.2q0.5 0 1 0c3 0 6 0.2 8.9 0.2 0.6 0 0.9 0.7 1.1 1.1q0.2 0.8 0.2 1.6c0 0.8-0.2 2.2-1.1 2.5-0.1 0.5-0.2 1.1-0.5 1.5q-0.2 0.4-0.7 0.4c-1 0.3-1.9 0.5-2.9 0.7q-1.4 0.3-2.8 0.5c-1.8 0.2-3.6 0.3-5.4 0.5-3.5 0.3-6.9 0.9-10.3 1.3q-1.4 0.2-2.8 0.4c5.6 0.2 11.1 0.4 16.7 0.3q4.3 0 8.6-0.2 4.3-0.2 8.6-0.3c0.3 0 0.6 0.4 0.7 0.7q0.2 0.5 0.2 1.1c0 0.6-0.2 1.6-0.9 1.8-1.6 0.3-3.2 0.6-4.8 0.8q-2.1 0.3-4.2 0.7-4.4 0.9-8.7 1.9-4.5 0.9-9.1 1.5c-2.7 0.3-5.4 0.5-8 0.7-6 0.4-11.9 0.6-17.9 1.1-5.6 0.4-11.3 1.1-16.9 1.6q-4.9 0.4-9.8 0.8-1.9 0.1-3.8 0.2c-1.3 0.1-2.5 0.2-3.8 0.3q-8.8 0.3-17.6 0.5c-5.9 0.1-11.9 0.2-17.8 0.3q-18 0-36.1 0-18.1-0.1-36.2-0.2c-6.2 0-12.4 0-18.6 0.1-6.1 0-12.2 0.1-18.3 0.2-5.8 0.1-11.6 0.4-17.4 0.6q-1.6 0-3.2 0.1c-1.1 0-2.2 0.2-3.4 0.3q-6.3 0.4-12.7 1z"/></svg>